<?xml version="1.0" encoding="iso-8859-1"?>
<!-- Generator: Adobe Illustrator 19.0.0, SVG Export Plug-In . SVG Version: 6.00 Build 0)  -->
<svg xmlns="http://www.w3.org/2000/svg" xmlns:xlink="http://www.w3.org/1999/xlink" version="1.1" id="Layer_1" x="0px" y="0px" viewBox="0 0 512 512" style="enable-background:new 0 0 512 512;" xml:space="preserve" width="512" height="512">
<g>
	<g>
		<g>
			<g>
				<circle style="fill:#CDD6DF;" cx="256" cy="448.343" r="56.157"/>
				<path style="fill:#426175;" d="M256,457.998L256,457.998c-19.097,0-34.59,15.406-34.742,34.467      c9.559,7.537,21.625,12.035,34.742,12.035s25.183-4.498,34.742-12.035C290.59,473.404,275.097,457.998,256,457.998z"/>
				<circle style="fill:#426175;" cx="256" cy="438.554" r="19.444"/>
			</g>
			<g>
				<circle style="fill:#CDD6DF;" cx="447.513" cy="448.343" r="56.157"/>
				<path style="fill:#426175;" d="M447.513,457.998L447.513,457.998c-19.097,0-34.59,15.406-34.742,34.467      c9.559,7.537,21.625,12.035,34.742,12.035c13.117,0,25.184-4.498,34.742-12.035C482.103,473.404,466.61,457.998,447.513,457.998      z"/>
				<circle style="fill:#426175;" cx="447.513" cy="438.554" r="19.444"/>
			</g>
			<g>
				<circle style="fill:#CDD6DF;" cx="64.487" cy="448.343" r="56.157"/>
				<path style="fill:#426175;" d="M64.411,457.997L64.411,457.997c-19.096-0.15-34.71,15.134-35.012,34.194      c9.499,7.612,21.53,12.204,34.647,12.307c13.117,0.103,25.218-4.3,34.836-11.762C98.879,473.675,83.508,458.147,64.411,457.997z      "/>
				<circle style="fill:#426175;" cx="64.564" cy="438.554" r="19.444"/>
			</g>
		</g>
		<g>
			<g>
				<path style="fill:#88DBFD;" d="M374.84,115.145c-3.591,0-7.131,0.215-10.614,0.619C364.028,55.938,315.472,7.5,255.599,7.5      c-42.425,0-79.164,24.323-97.048,59.781c-62.323,1.36-112.428,52.303-112.428,114.953c0,63.505,51.481,114.986,114.986,114.986      c48.761,0,168.411,0,213.733,0c50.279,0,91.038-40.759,91.038-91.038C465.878,155.904,425.119,115.145,374.84,115.145z"/>
				<g>
					<path style="fill:#5ABFE9;" d="M374.84,115.145c-3.591,0-7.131,0.215-10.614,0.619C364.028,55.938,315.472,7.5,255.599,7.5       c-24.179,0-46.504,7.909-64.551,21.268c2.893-0.231,5.813-0.361,8.765-0.361c59.873,0,108.429,48.438,108.628,108.264       c3.482-0.404,7.023-0.619,10.614-0.619c50.279,0,91.038,40.759,91.038,91.038c0,28.199-12.823,53.402-32.954,70.101       c49.217-1.219,88.74-41.498,88.74-91.009C465.878,155.904,425.119,115.145,374.84,115.145z"/>
				</g>
				<g>
					<g>
						<path style="fill:#F2F2F2;" d="M348.287,208.994H163.713c-6.853,0-12.409-5.556-12.409-12.409v-42.602        c0-6.853,5.556-12.409,12.409-12.409h184.573c6.853,0,12.409,5.556,12.409,12.409v42.602        C360.696,203.438,355.14,208.994,348.287,208.994z"/>
						<path style="fill:#CDD6DF;" d="M348.287,141.574H304.91v38.803c0,6.853-5.556,12.409-12.409,12.409H151.304v3.8        c0,6.853,5.556,12.409,12.409,12.409h184.573c6.853,0,12.409-5.556,12.409-12.409v-42.602        C360.696,147.129,355.14,141.574,348.287,141.574z"/>
						<path style="fill:#F2F2F2;" d="M348.287,276.414H163.713c-6.853,0-12.409-5.556-12.409-12.409v-42.602        c0-6.853,5.556-12.409,12.409-12.409h184.573c6.853,0,12.409,5.556,12.409,12.409v42.602        C360.696,270.859,355.14,276.414,348.287,276.414z"/>
						<path style="fill:#CDD6DF;" d="M348.287,208.994H304.91v38.803c0,6.853-5.556,12.409-12.409,12.409H151.304v3.8        c0,6.853,5.556,12.409,12.409,12.409h184.573c6.853,0,12.409-5.556,12.409-12.409v-42.602        C360.696,214.55,355.14,208.994,348.287,208.994z"/>
						<path style="fill:#F2F2F2;" d="M348.287,343.835H163.713c-6.853,0-12.409-5.556-12.409-12.409v-42.602        c0-6.853,5.556-12.409,12.409-12.409h184.573c6.853,0,12.409,5.556,12.409,12.409v42.602        C360.696,338.279,355.14,343.835,348.287,343.835z"/>
						<path style="fill:#CDD6DF;" d="M348.287,276.414H304.91v38.803c0,6.853-5.556,12.409-12.409,12.409H151.304v3.8        c0,6.853,5.556,12.409,12.409,12.409h184.573c6.853,0,12.409-5.556,12.409-12.409v-42.602        C360.696,281.97,355.14,276.414,348.287,276.414z"/>
					</g>
				</g>
			</g>
			<g>
				<circle style="fill:#FD715C;" cx="184.463" cy="173.268" r="9.078"/>
				<circle style="fill:#FD715C;" cx="220.37" cy="173.268" r="9.078"/>
			</g>
			<g>
				<circle style="fill:#FD715C;" cx="184.463" cy="242.704" r="9.078"/>
				<circle style="fill:#FD715C;" cx="220.37" cy="242.704" r="9.078"/>
			</g>
			<g>
				<circle style="fill:#FD715C;" cx="184.463" cy="310.124" r="9.078"/>
				<circle style="fill:#FD715C;" cx="220.37" cy="310.124" r="9.078"/>
			</g>
		</g>
	</g>
	<g>
		<path d="M117.601,296.758c3.875,1.474,8.204-0.475,9.675-4.346c1.472-3.872-0.475-8.204-4.347-9.675    c-20.162-7.662-37.4-21.083-49.852-38.813C60.35,225.8,53.622,204.468,53.622,182.235c0-28.294,10.903-55.004,30.7-75.211    c19.768-20.177,46.188-31.628,74.392-32.244c2.772-0.061,5.284-1.645,6.533-4.121C182.563,36.327,217.183,15,255.599,15    c55.577,0,100.943,45.214,101.128,100.789c0.007,2.135,0.924,4.167,2.521,5.584c1.598,1.418,3.725,2.087,5.844,1.841    c3.253-0.378,6.533-0.569,9.749-0.569c46.063,0,83.538,37.475,83.538,83.538c0,40.079-28.527,74.592-67.832,82.065    c-4.069,0.774-6.741,4.7-5.967,8.769c0.684,3.596,3.829,6.101,7.36,6.101c0.464,0,0.936-0.043,1.409-0.133    c46.373-8.817,80.03-49.527,80.03-96.801c0-54.334-44.204-98.538-98.538-98.538c-1.134,0-2.273,0.02-3.417,0.06    C367.086,47.618,316.72,0,255.599,0c-42.62,0-81.172,22.861-101.662,59.959c-30.466,1.754-58.845,14.638-80.329,36.566    c-22.561,23.028-34.986,53.466-34.986,85.709c0,25.335,7.67,49.647,22.181,70.31C74.984,272.738,94.625,288.026,117.601,296.758z"/>
		<path d="M511.17,448.343c0-35.101-28.557-63.657-63.657-63.657c-29.11,0-53.72,19.642-61.271,46.368h-68.97    c-6.894-24.397-28.001-42.891-53.771-45.929v-33.791h84.787c10.978,0,19.909-8.931,19.909-19.909v-42.603    c0-4.689-1.629-9.004-4.351-12.409c2.722-3.405,4.351-7.72,4.351-12.409v-42.603c0-4.688-1.629-9.003-4.351-12.409    c2.722-3.406,4.351-7.721,4.351-12.409v-42.602c0-10.978-8.931-19.909-19.909-19.909H163.713    c-10.978,0-19.909,8.931-19.909,19.909v42.602c0,4.689,1.629,9.004,4.351,12.409c-2.722,3.405-4.351,7.72-4.351,12.409v42.603    c0,4.688,1.629,9.003,4.351,12.409c-2.722,3.406-4.351,7.721-4.351,12.409v42.603c0,10.978,8.931,19.909,19.909,19.909H248.5    v33.791c-25.77,3.038-46.878,21.531-53.771,45.929h-68.946c-2.866-10.216-8.281-19.598-15.931-27.369    c-11.928-12.117-27.862-18.864-44.865-18.998c-0.169-0.001-0.338-0.002-0.507-0.002c-34.869,0-63.373,28.228-63.648,63.158    C0.698,464.846,7.194,480.883,19.123,493s27.862,18.864,44.865,18.998c0.171,0.001,0.337,0.002,0.508,0.002    c14.404,0,27.722-4.818,38.413-12.935c0.392-0.25,0.759-0.536,1.097-0.852c14.565-11.565,23.98-29.369,24.137-49.37    c0.007-0.933-0.005-1.863-0.038-2.789h64.279c-0.027,0.76-0.041,1.523-0.041,2.289c0,20.008,9.279,37.89,23.759,49.568    c0.33,0.313,0.689,0.597,1.072,0.846C227.927,507.057,241.397,512,256,512s28.073-4.943,38.826-13.243    c0.383-0.249,0.742-0.533,1.072-0.846c14.48-11.678,23.759-29.56,23.759-49.568c0-0.766-0.014-1.529-0.041-2.289h64.281    c-0.027,0.76-0.041,1.523-0.041,2.289c0,20.008,9.279,37.89,23.759,49.568c0.33,0.313,0.689,0.597,1.072,0.846    C419.44,507.057,432.91,512,447.513,512c14.605,0,28.077-4.944,38.83-13.246c0.38-0.247,0.735-0.529,1.063-0.839    C501.89,486.237,511.17,468.353,511.17,448.343z M163.713,268.914c-2.707,0-4.909-2.202-4.909-4.909v-42.603    c0-2.707,2.202-4.909,4.909-4.909h184.573c2.707,0,4.909,2.202,4.909,4.909v42.603c0,2.707-2.202,4.909-4.909,4.909H163.713z     M158.804,153.983c0-2.707,2.202-4.909,4.909-4.909h184.573c2.707,0,4.909,2.202,4.909,4.909v42.602    c0,2.707-2.202,4.909-4.909,4.909H163.713c-2.707,0-4.909-2.202-4.909-4.909V153.983z M158.804,331.426v-42.603    c0-2.707,2.202-4.909,4.909-4.909h184.573c2.707,0,4.909,2.202,4.909,4.909v42.603c0,2.707-2.202,4.909-4.909,4.909H163.713    C161.006,336.334,158.804,334.132,158.804,331.426z M64.494,497c-0.129,0-0.259,0-0.389-0.002    c-9.741-0.076-19.023-2.993-26.901-8.349c1.991-13.093,13.368-23.153,26.932-23.153c0.058,0,0.116,0,0.174,0    c0.014,0,0.028,0,0.042,0.001c0.016,0,0.032,0,0.048,0c13.627,0.131,24.922,10.383,26.729,23.543    C83.467,494.072,74.311,497,64.494,497z M64.47,450.497L64.47,450.497c-6.586-0.051-11.901-5.451-11.849-12.037    c0.051-6.554,5.399-11.85,11.942-11.85c0.032,0,0.063,0,0.095,0c6.585,0.052,11.901,5.452,11.85,12.037    C76.456,445.233,71.077,450.564,64.47,450.497z M103.486,477.408c-3.544-9.029-10.117-16.569-18.456-21.349    c3.991-4.659,6.425-10.693,6.477-17.293v0c0.116-14.856-11.875-27.037-26.731-27.154c-0.073,0-0.143,0-0.215,0    c-14.758,0-26.823,11.948-26.94,26.732c-0.05,6.422,2.134,12.517,6.192,17.4c-8.416,4.655-15.107,12.1-18.788,21.08    c-6.05-8.345-9.275-18.363-9.192-28.862c0.209-26.701,21.995-48.276,48.65-48.276c0.127,0,0.26,0,0.387,0.002    c12.997,0.102,25.176,5.259,34.293,14.521c9.118,9.262,14.083,21.52,13.98,34.517    C113.058,459.474,109.475,469.393,103.486,477.408z M229.039,488.829c1.912-13.161,13.312-23.331,26.961-23.331    s25.048,10.171,26.961,23.331C275.238,493.989,265.964,497,256,497S236.762,493.989,229.039,488.829z M244.056,438.554    c0-6.586,5.358-11.944,11.944-11.944s11.944,5.358,11.944,11.944s-5.358,11.944-11.944,11.944S244.056,445.14,244.056,438.554z     M295.226,477.101c-3.615-9-10.247-16.488-18.623-21.203c3.954-4.69,6.34-10.744,6.34-17.344    c0-14.857-12.087-26.944-26.944-26.944s-26.944,12.087-26.944,26.944c0,6.6,2.386,12.654,6.34,17.344    c-8.376,4.715-15.008,12.203-18.623,21.203c-5.926-8.062-9.431-18.008-9.431-28.758c0-26.83,21.828-48.657,48.657-48.657    s48.657,21.828,48.657,48.657C304.657,459.093,301.153,469.039,295.226,477.101z M398.856,448.343    c0-26.83,21.828-48.657,48.657-48.657s48.657,21.828,48.657,48.657c0,10.75-3.505,20.697-9.431,28.758    c-3.615-9.001-10.247-16.489-18.623-21.204c3.954-4.69,6.34-10.743,6.34-17.344c0-14.857-12.087-26.944-26.943-26.944    c-14.857,0-26.944,12.087-26.944,26.944c0,6.6,2.386,12.654,6.34,17.344c-8.376,4.715-15.008,12.203-18.623,21.203    C402.361,469.039,398.856,459.093,398.856,448.343z M435.569,438.554c0-6.586,5.358-11.944,11.944-11.944    c6.585,0,11.943,5.358,11.943,11.944s-5.358,11.944-11.943,11.944C440.927,450.498,435.569,445.14,435.569,438.554z     M420.552,488.829c1.913-13.161,13.312-23.331,26.961-23.331c13.649,0,25.048,10.171,26.96,23.332    c-7.722,5.159-16.996,8.171-26.96,8.171C437.549,497,428.275,493.989,420.552,488.829z"/>
	</g>
</g>















</svg>
